<svg width="144" height="26" viewBox="0 0 144 26" fill="none" xmlns="http://www.w3.org/2000/svg">
<path fill-rule="evenodd" clip-rule="evenodd" d="M102.502 1.60175H99.8072V18.5965H102.502V11.7986C102.502 9.94052 103.567 8.87552 105.265 8.87552C106.873 8.87552 107.598 9.94052 107.598 11.5494V18.5965H110.293V11.2095C110.293 8.46764 108.776 6.56422 105.922 6.56422C104.178 6.56422 103.046 7.312 102.502 8.10509V1.60175ZM44.9829 16.4439C42.8087 16.4439 41.6537 15.2882 41.5405 13.5661H38.8228C38.9133 16.1946 40.5666 18.9138 44.847 18.9138C48.6971 18.9138 51.2337 17.0104 51.2337 14.0873C51.2337 10.3912 48.2454 9.72238 45.7015 9.15292C43.816 8.73093 42.1746 8.36349 42.1746 6.8588C42.1746 5.43124 43.3296 4.63815 45.2094 4.63815C47.2703 4.63815 48.3348 5.90709 48.3574 7.49327H51.0525C50.9845 4.47953 48.9916 2.16824 45.2094 2.16824C41.6311 2.16824 39.4569 4.36623 39.4569 6.92678C39.4569 10.5412 42.2931 11.1534 44.7796 11.6902C46.7203 12.1091 48.448 12.4822 48.448 14.2006C48.448 15.6508 47.1797 16.4439 44.9829 16.4439ZM60.7965 13.6114C60.7965 15.5375 59.7547 16.5572 58.0788 16.5572C56.4481 16.5572 55.7913 15.4922 55.7913 13.8833V6.83614H53.0963V14.2459C53.0963 16.9877 54.5684 18.8685 57.422 18.8685C59.3244 18.8685 60.5021 18.0074 61.0003 17.0783V18.5965H63.4915V6.83614H60.7965V13.6114ZM72.4635 18.8685C70.6517 18.8685 69.3608 18.0754 68.704 17.0557V23.3098H66.0089V6.83614H68.5002V8.51296C69.2702 7.312 70.6517 6.56422 72.4635 6.56422C75.9512 6.56422 77.9216 9.35137 77.9216 12.7277C77.9216 16.0813 75.9512 18.8685 72.4635 18.8685ZM71.92 8.89818C69.859 8.89818 68.6134 10.5523 68.6134 12.7277C68.6134 14.835 69.859 16.4892 71.92 16.4892C73.9583 16.4892 75.2265 14.835 75.2265 12.7277C75.2265 10.5523 73.9583 8.89818 71.92 8.89818ZM90.4964 13.4981C90.4964 13.4981 90.5191 13.0902 90.5191 12.6597C90.5191 9.21541 88.2317 6.56422 84.744 6.56422C81.2563 6.56422 78.9009 9.28339 78.9009 12.705C78.9009 16.2173 81.211 18.8685 84.7667 18.8685C87.507 18.8685 89.5905 17.2143 90.2926 14.8803H87.5749C87.1446 15.9227 86.0802 16.5572 84.8346 16.5572C82.9549 16.5572 81.7545 15.3562 81.5507 13.4981H90.4964ZM84.744 8.76222C86.4879 8.76222 87.6202 9.87254 87.8467 11.504H81.596C81.8678 9.8952 83.0001 8.76222 84.744 8.76222ZM98.2054 6.72284C98.3186 6.72284 98.5904 6.7455 98.5904 6.7455V9.26073C98.5904 9.26073 98.2733 9.21541 97.9789 9.21541C96.0765 9.21541 94.9441 10.2124 94.9441 12.4784V18.5965H92.249V6.83614H94.7403V8.46764C95.1706 7.71987 96.1671 6.72284 98.2054 6.72284ZM123.566 12.6597C123.566 13.0902 123.543 13.4981 123.543 13.4981H114.597C114.801 15.3562 116.001 16.5572 117.881 16.5572C119.127 16.5572 120.191 15.9227 120.621 14.8803H123.339C122.637 17.2143 120.553 18.8685 117.813 18.8685C114.257 18.8685 111.947 16.2173 111.947 12.705C111.947 9.28339 114.303 6.56422 117.79 6.56422C121.278 6.56422 123.566 9.21541 123.566 12.6597ZM120.893 11.504C120.667 9.87254 119.534 8.76222 117.79 8.76222C116.046 8.76222 114.914 9.8952 114.642 11.504H120.893ZM131.637 6.7455C131.637 6.7455 131.365 6.72284 131.252 6.72284C129.213 6.72284 128.217 7.71987 127.787 8.46764V6.83614H125.295V18.5965H127.991V12.4784C127.991 10.2124 129.123 9.21541 131.025 9.21541C131.32 9.21541 131.637 9.26073 131.637 9.26073V6.7455ZM143.781 12.7277C143.781 16.036 141.426 18.8685 137.666 18.8685C133.929 18.8685 131.574 16.036 131.574 12.7277C131.574 9.41935 133.929 6.56422 137.666 6.56422C141.426 6.56422 143.781 9.41935 143.781 12.7277ZM137.666 8.94349C135.719 8.94349 134.269 10.439 134.269 12.7277C134.269 14.9936 135.719 16.4892 137.666 16.4892C139.637 16.4892 141.086 14.9936 141.086 12.7277C141.086 10.439 139.637 8.94349 137.666 8.94349Z" fill="black"/>
<path fill-rule="evenodd" clip-rule="evenodd" d="M0.290039 9.18396L9.06039 0.982147L24.6364 0.987315L33.4068 9.18988L27.842 14.6452L27.7616 14.7817L27.703 14.7815L16.8977 25.3742L0.290039 9.18396ZM10.0545 3.50107L14.8169 3.50264L25.0091 13.8951L16.8916 21.853L3.93599 9.223L10.0545 3.50107Z" fill="#1060FD"/>
<path d="M9.06048 0.982144V0.938568H9.04333L9.03069 0.950307L9.06048 0.982144ZM0.290132 9.18395L0.260392 9.15214L0.227051 9.18334L0.259737 9.21515L0.290132 9.18395ZM24.6365 0.987312L24.6663 0.955484L24.6537 0.943745L24.6365 0.943736V0.987312ZM33.4069 9.18988L33.4374 9.22099L33.4699 9.18918L33.4366 9.15807L33.4069 9.18988ZM27.8421 14.6452L27.8106 14.613L27.8046 14.6231L27.8421 14.6452ZM27.7617 14.7817L27.7616 14.8253L27.7866 14.8254L27.7992 14.8038L27.7617 14.7817ZM27.7031 14.7815L27.7033 14.7379L27.6854 14.7379L27.6726 14.7504L27.7031 14.7815ZM16.8978 25.3742L16.8674 25.4054L16.8979 25.4352L16.9283 25.4054L16.8978 25.3742ZM14.817 3.50264L14.8481 3.47213L14.8353 3.45906H14.817V3.50264ZM10.0546 3.50107V3.45749H10.0374L10.0248 3.46926L10.0546 3.50107ZM25.0092 13.8951L25.0397 13.9262L25.0709 13.8957L25.0403 13.8646L25.0092 13.8951ZM16.8917 21.853L16.8613 21.8842L16.8918 21.9139L16.9222 21.8841L16.8917 21.853ZM3.93608 9.223L3.90634 9.19119L3.873 9.2223L3.90569 9.2542L3.93608 9.223ZM9.03069 0.950307L0.260392 9.15214L0.319875 9.21576L9.09019 1.01398L9.03069 0.950307ZM24.6365 0.943736L9.06048 0.938568V1.02572L24.6365 1.03089V0.943736ZM33.4366 9.15807L24.6663 0.955484L24.6068 1.01915L33.3771 9.22178L33.4366 9.15807ZM27.8726 14.6763L33.4374 9.22099L33.3764 9.15876L27.8116 14.6141L27.8726 14.6763ZM27.7992 14.8038L27.8796 14.6673L27.8046 14.6231L27.7242 14.7596L27.7992 14.8038ZM27.7029 14.8251L27.7616 14.8253L27.7619 14.7381L27.7033 14.7379L27.7029 14.8251ZM16.9283 25.4054L27.7336 14.8126L27.6726 14.7504L16.8673 25.3431L16.9283 25.4054ZM0.259737 9.21515L16.8674 25.4054L16.9282 25.343L0.320528 9.15275L0.259737 9.21515ZM14.817 3.45906L10.0546 3.45749L10.0545 3.54464L14.817 3.54621V3.45906ZM25.0403 13.8646L14.8481 3.47213L14.7859 3.53323L24.9782 13.9256L25.0403 13.8646ZM16.9222 21.8841L25.0397 13.9262L24.9788 13.864L16.8612 21.8219L16.9222 21.8841ZM3.90569 9.2542L16.8613 21.8842L16.9221 21.8218L3.96647 9.1918L3.90569 9.2542ZM10.0248 3.46926L3.90634 9.19119L3.96582 9.25481L10.0843 3.53288L10.0248 3.46926Z" fill="#1060FD"/>
</svg>
